<svg width="24" height="24" viewBox="0 0 24 24" fill="none" xmlns="http://www.w3.org/2000/svg">
<path fill-rule="evenodd" clip-rule="evenodd" d="M13.9624 15.081L18.8846 15.1325C18.8811 17.3437 18.0589 17.7988 16.258 18.6865C12.5478 20.5155 9.27454 19.367 6.63498 16.9433C5.10731 15.5415 5.40766 14.5926 4.55254 12.8344C2.6727 18.4235 5.794 23.2387 10.8199 23.9021C16.0554 24.5933 23.9976 21.5245 23.9988 17.8793L24 11L13.9424 11.0097L13.9624 15.081Z" fill="white"/>
<path fill-rule="evenodd" clip-rule="evenodd" d="M1.32539 17C2.25371 11.8415 2.75913 9.03395 6.35093 6.56135C7.89584 5.49803 9.94618 4.67457 12.3507 4.5353C15.5367 4.35071 16.5441 5.32892 18.4031 6.48508L23 4.03348C20.2861 -0.964782 4.64786 -2.91567 0.676707 7.76063C-0.404044 10.6665 -0.192019 14.4556 1.32539 17Z" fill="white"/>
</svg>
