<svg width="1669" height="392" viewBox="0 0 1669 392" fill="none" xmlns="http://www.w3.org/2000/svg">
<path fill-rule="evenodd" clip-rule="evenodd" d="M821.91 146.682L805.18 183.642C844.33 222.692 948.13 233.552 970 174.202C983.19 138.392 963.41 109.532 937.6 98.2118C916.22 88.8318 856.4 81.7418 868.35 50.4618C883.6 22.7618 937.07 54.3318 955.82 61.3518L972.58 22.8718C939.76 6.41179 896.96 -10.5483 854.34 8.26174C808.08 28.6817 807.34 77.5418 832.78 102.362C860.43 129.352 927.73 124.712 923.46 158.172C919.49 189.352 869.24 173.782 844.58 160.992C834.2 155.612 831.03 151.362 821.91 146.682Z" fill="#3F3D56"/>
<path fill-rule="evenodd" clip-rule="evenodd" d="M1190.35 214.032L1238.93 214.232L1298.04 55.6017C1302.54 58.2817 1305.42 68.2417 1307.12 72.9817C1309.51 79.6217 1311.97 86.1317 1314.58 93.1917L1359.17 214.222L1409.5 214.192L1326.28 2.89166L1275.24 2.45166L1190.35 214.032Z" fill="#3F3D56"/>
<path fill-rule="evenodd" clip-rule="evenodd" d="M598.29 214.192C629.67 216.512 718.96 214.902 756.11 214.872L756.14 175.932H645.82L645.37 42.0418L751.93 41.9918L752.92 3.88177L598.29 3.12183V214.192Z" fill="#3F3D56"/>
<path fill-rule="evenodd" clip-rule="evenodd" d="M0 214.212C32.13 216.512 120.12 214.902 157.83 214.872L157.84 175.932H47.23L47.07 42.0418L153.65 41.9918L154.64 3.88177L0 3.12183V214.212Z" fill="#3F3D56"/>
<path fill-rule="evenodd" clip-rule="evenodd" d="M1440.68 125.502C1430.73 56.8717 1479.01 8.93167 1538.7 2.39167C1605.89 -4.97833 1657.68 35.1617 1666.57 93.0117C1688.67 236.802 1460.55 262.512 1440.68 125.502ZM1571.88 172.832C1488.92 195.792 1448.36 68.6718 1537.53 44.7718C1578.96 33.6618 1610.86 61.6618 1618.82 93.2118C1628.77 132.592 1600.91 164.802 1571.88 172.832Z" fill="#3F3D56"/>
<path fill-rule="evenodd" clip-rule="evenodd" d="M449.99 132.882L491.78 133.362C491.75 153.962 484.77 158.202 469.48 166.472C437.98 183.512 410.19 172.812 387.78 150.232C374.81 137.172 377.36 128.332 370.1 111.952C354.14 164.022 380.64 208.882 423.31 215.062C467.76 221.502 535.19 192.912 535.2 158.952L535.21 94.8618L449.82 94.9518L449.99 132.882Z" fill="#3F3D56"/>
<path fill-rule="evenodd" clip-rule="evenodd" d="M335.61 155.762C343.71 109.092 348.12 83.6917 379.46 61.3217C392.94 51.7017 410.83 44.2517 431.81 42.9917C459.61 41.3217 468.4 50.1717 484.62 60.6317L524.73 38.4517C501.05 -6.76831 364.6 -24.4183 329.95 72.1717C320.52 98.4617 322.37 132.742 335.61 155.762Z" fill="#D12123"/>
<path fill-rule="evenodd" clip-rule="evenodd" d="M1076.08 66.4418L1076.13 213.062L1122.73 213.682L1123.48 65.1418C1105.31 57.6918 1093.01 56.6918 1076.08 66.4418Z" fill="#3F3D56"/>
<path fill-rule="evenodd" clip-rule="evenodd" d="M1015.99 41.7117L1184.22 42.0217L1185.12 3.64172L1015.72 2.50171L1015.99 41.7117Z" fill="#3F3D56"/>
<path fill-rule="evenodd" clip-rule="evenodd" d="M675.03 128.032L742.17 128.012L742.37 90.3217L681.77 89.7917L675.03 128.032Z" fill="#3F3D56"/>
<path fill-rule="evenodd" clip-rule="evenodd" d="M76.73 128.022L143.87 128.002L144.09 90.3317L83.48 89.7917L76.73 128.022Z" fill="#3F3D56"/>
<path fill-rule="evenodd" clip-rule="evenodd" d="M204.33 134.302H276.43V105.052H204.33V134.302Z" fill="#D12123"/>
<path d="M476.42 385.702V363.702C480.41 367.052 484.74 369.562 489.41 371.232C494.08 372.892 498.79 373.742 503.55 373.742C506.36 373.742 508.8 373.482 510.87 372.992C512.95 372.472 514.69 371.792 516.1 370.882C517.5 369.982 518.53 368.932 519.21 367.732C519.92 366.512 520.25 365.202 520.25 363.772C520.25 361.852 519.71 360.142 518.6 358.642C517.5 357.112 516 355.702 514.1 354.442C512.2 353.152 509.95 351.912 507.33 350.732C504.72 349.542 501.91 348.322 498.88 347.072C491.19 343.892 485.45 339.972 481.67 335.332C477.9 330.712 476.02 325.132 476.02 318.582C476.02 313.452 477.03 309.042 479.09 305.362C481.16 301.652 483.97 298.632 487.51 296.242C491.07 293.872 495.18 292.112 499.85 290.982C504.51 289.862 509.46 289.302 514.69 289.302C519.82 289.302 524.37 289.622 528.34 290.232C532.28 290.842 535.93 291.812 539.29 293.092V313.642C537.62 312.492 535.84 311.482 533.89 310.612C531.95 309.742 529.93 309.022 527.87 308.432C525.83 307.872 523.76 307.452 521.72 307.162C519.68 306.912 517.76 306.772 515.93 306.772C513.4 306.772 511.12 307.002 509.06 307.472C507 307.962 505.26 308.642 503.83 309.512C502.42 310.382 501.32 311.412 500.52 312.632C499.75 313.852 499.38 315.212 499.38 316.712C499.38 318.372 499.8 319.852 500.67 321.142C501.53 322.452 502.78 323.702 504.39 324.872C505.99 326.022 507.94 327.172 510.23 328.292C512.51 329.422 515.11 330.572 517.99 331.762C521.93 333.402 525.45 335.162 528.59 337.022C531.74 338.872 534.43 340.982 536.66 343.302C538.91 345.642 540.62 348.322 541.82 351.322C543.01 354.302 543.6 357.792 543.6 361.782C543.6 367.292 542.57 371.882 540.48 375.642C538.4 379.362 535.58 382.392 531.99 384.692C528.43 387.012 524.28 388.672 519.54 389.682C514.78 390.692 509.79 391.182 504.51 391.182C499.12 391.182 493.98 390.742 489.11 389.822C484.23 388.912 479.98 387.522 476.42 385.702ZM610.41 391.182C598.68 391.182 589.47 387.902 582.76 381.332C576.05 374.772 572.7 365.832 572.7 354.582C572.7 342.952 576.17 333.832 583.14 327.262C590.1 320.692 599.53 317.412 611.37 317.412C623.05 317.412 632.21 320.692 638.85 327.262C645.49 333.832 648.82 342.532 648.82 353.342C648.82 365.012 645.39 374.252 638.55 381.032C631.7 387.812 622.32 391.182 610.41 391.182ZM610.97 334.042C605.83 334.042 601.85 335.802 599.01 339.312C596.17 342.852 594.74 347.852 594.74 354.302C594.74 367.802 600.21 374.562 611.11 374.562C621.5 374.562 626.7 367.622 626.7 353.762C626.7 340.602 621.45 334.042 610.97 334.042ZM725.47 301.962C722.68 300.862 719.98 300.292 717.43 300.292C710.46 300.292 706.99 304.072 706.99 311.642V319.122H723.06V335.142H706.99V389.472H685.35V335.142H673.53V319.122H685.35V310.402C685.35 302.382 687.95 295.932 693.18 291.032C698.39 286.132 705.49 283.672 714.47 283.672C718.86 283.672 722.54 284.142 725.47 285.052V301.962ZM797.76 388.652C794.55 390.342 789.72 391.182 783.27 391.182C767.98 391.182 760.32 383.232 760.32 367.362V335.142H748.92V319.122H760.32V303.952L781.96 297.762V319.122H797.76V335.142H781.96V363.582C781.96 370.902 784.87 374.562 790.68 374.562C792.98 374.562 795.35 373.902 797.76 372.562V388.652ZM931.07 319.122L910.81 389.472H888L877.63 348.252C876.95 345.502 876.55 342.502 876.46 339.242H876.06C875.73 342.832 875.29 345.742 874.68 347.972L863.54 389.472H841.03L821.17 319.122H843.28L852.96 365.012C853.43 367.172 853.78 369.772 853.99 372.852H854.42C854.65 369.632 855.05 366.942 855.66 364.732L867.74 319.122H888.42L899.27 365.012C899.56 366.162 899.86 368.812 900.24 372.992H900.73C900.94 370.342 901.31 367.662 901.81 365.012L910.95 319.122H931.07ZM1019.12 389.472H998.58V379.362H998.3C993.59 387.242 986.6 391.182 977.34 391.182C970.51 391.182 965.14 389.262 961.23 385.392C957.31 381.522 955.37 376.342 955.37 369.892C955.37 356.242 963.45 348.362 979.61 346.252L998.72 343.722C998.72 336.032 994.55 332.182 986.2 332.182C977.83 332.182 969.86 334.672 962.31 339.662V323.322C965.33 321.752 969.46 320.392 974.71 319.192C979.94 318.002 984.72 317.412 989.04 317.412C1009.09 317.412 1019.12 327.422 1019.12 347.432V389.472ZM998.72 360.892V356.152L985.94 357.792C978.88 358.712 975.37 361.892 975.37 367.362C975.37 369.822 976.21 371.862 977.92 373.432C979.66 375.002 981.98 375.802 984.91 375.802C988.99 375.802 992.3 374.392 994.88 371.582C997.43 368.762 998.72 365.202 998.72 360.892ZM1101.41 338.702C1098.78 337.272 1095.73 336.572 1092.26 336.572C1087.55 336.572 1083.87 338.312 1081.19 341.752C1078.54 345.222 1077.21 349.912 1077.21 355.872V389.472H1055.52V319.122H1077.21V332.182H1077.49C1080.93 322.642 1087.1 317.882 1096.04 317.882C1098.33 317.882 1100.12 318.162 1101.41 318.702V338.702ZM1192.06 360.492H1146.17C1146.9 370.692 1153.35 375.802 1165.47 375.802C1173.21 375.802 1180.01 373.972 1185.87 370.312V385.982C1179.37 389.452 1170.93 391.182 1160.52 391.182C1149.17 391.182 1140.35 388.042 1134.07 381.732C1127.81 375.452 1124.67 366.662 1124.67 355.402C1124.67 343.722 1128.04 334.462 1134.84 327.632C1141.62 320.812 1149.94 317.412 1159.84 317.412C1170.09 317.412 1178.04 320.462 1183.64 326.532C1189.25 332.632 1192.06 340.912 1192.06 351.342V360.492ZM1171.94 347.142C1171.94 337.082 1167.86 332.042 1159.7 332.042C1156.23 332.042 1153.2 333.472 1150.67 336.362C1148.12 339.242 1146.59 342.852 1146.03 347.142H1171.94Z" fill="#D12123"/>
</svg>
